<?xml version="1.0" encoding="iso-8859-1"?>
<!-- Generator: Adobe Illustrator 19.0.0, SVG Export Plug-In . SVG Version: 6.00 Build 0)  -->
<svg version="1.1" id="Capa_1" xmlns="http://www.w3.org/2000/svg" xmlns:xlink="http://www.w3.org/1999/xlink" x="0px" y="0px"
	 viewBox="0 0 489.999 489.999" style="enable-background:new 0 0 489.999 489.999;" xml:space="preserve">
<g>
	<path d="M489.23,354.13l-65.975-163.3c0.983-3.65-0.053-7.703-3.038-10.421L290.639,62.342c-0.693-3.738-3.401-6.962-7.292-8.109
		L101.021,0.426c-2.667-0.784-5.533-0.478-7.962,0.855c-2.433,1.334-4.235,3.585-5.009,6.251L4.229,297.87
		c-15.788,54.697,14.073,112.118,66.886,130.444c17.239,37.632,54.248,61.685,95.632,61.685c0,0,0,0,0.005,0
		c13.683,0,27.092-2.678,39.859-7.952l276.933-114.375C488.838,365.493,491.373,359.445,489.23,354.13z M284.976,85.951
		L398.552,188.88L205.139,405.861c-16.005,17.949-38.887,28.242-62.787,28.242c-0.005,0-0.005,0-0.005,0
		c-4.109,0-15.698-1.482-17.428-1.852c38.29-7.382,70.488-36.068,81.671-74.792L284.976,85.951z M81.754,409.842
		c-44.787-13.226-70.576-60.863-57.488-106.19l80.91-280.257l162.328,47.902l-80.95,280.38
		c-10.471,36.275-43.825,61.607-81.108,61.607C97.468,413.283,89.496,412.122,81.754,409.842z M198.649,462.784
		c-10.227,4.226-20.963,6.364-31.898,6.364h-0.005c-19.227,0-37.283-6.496-51.761-17.828c0.309,0.083,16.592,3.939,27.362,3.634
		c0,0,0,0,0.005,0c29.836,0,58.399-12.838,78.354-35.227l187.538-210.384l57.778,143.005L198.649,462.784z"/>
	<path d="M109.369,313.951c-11.568-3.413-23.683,3.301-27.06,14.996c-3.377,11.697,3.264,23.945,14.832,27.359
		c11.568,3.415,23.683-3.3,27.06-14.996C127.578,329.614,120.937,317.365,109.369,313.951z"/>
</g>
<g>
</g>
<g>
</g>
<g>
</g>
<g>
</g>
<g>
</g>
<g>
</g>
<g>
</g>
<g>
</g>
<g>
</g>
<g>
</g>
<g>
</g>
<g>
</g>
<g>
</g>
<g>
</g>
<g>
</g>
</svg>
