<?xml version="1.0" encoding="iso-8859-1"?>
<!-- Generator: Adobe Illustrator 19.0.0, SVG Export Plug-In . SVG Version: 6.00 Build 0)  -->
<svg version="1.1" id="Capa_1" xmlns="http://www.w3.org/2000/svg" xmlns:xlink="http://www.w3.org/1999/xlink" x="0px" y="0px"
	 viewBox="0 0 60 60" style="enable-background:new 0 0 60 60;" xml:space="preserve">
<g>
	<path d="M30,0C13.458,0,0,13.458,0,30s13.458,30,30,30s30-13.458,30-30S46.542,0,30,0z M30,58C14.561,58,2,45.439,2,30
		S14.561,2,30,2s28,12.561,28,28S45.439,58,30,58z"/>
	<path d="M52.521,43.003l0.502-0.866l-0.014-0.008c1.953-3.694,2.991-7.83,2.991-12.127C55.999,30.002,56,30.001,56,30
		s-0.001-0.002-0.001-0.003c0-4.293-1.041-8.428-2.998-12.122l0.006-0.003l-0.057-0.099c-1.196-2.234-2.729-4.305-4.574-6.149
		c-1.844-1.844-3.914-3.377-6.147-4.573l-0.101-0.059l-0.003,0.006c-3.695-1.957-7.83-2.998-12.122-2.998
		C30.002,4.001,30.001,4,30,4s-0.002,0.001-0.003,0.001c-4.297,0-8.433,1.039-12.126,2.991l-0.008-0.013l-0.847,0.49
		c-0.957,0.554-1.882,1.17-2.769,1.849c-0.068,0.052-0.135,0.105-0.202,0.158c-0.342,0.267-0.679,0.544-1.01,0.829
		c-0.094,0.081-0.19,0.162-0.283,0.244c-0.387,0.344-0.768,0.697-1.138,1.066c-0.369,0.369-0.721,0.75-1.065,1.136
		c-0.084,0.094-0.165,0.191-0.247,0.286c-0.284,0.329-0.56,0.664-0.826,1.005c-0.053,0.068-0.108,0.136-0.16,0.205
		c-0.672,0.879-1.284,1.795-1.834,2.744c-0.001,0.001-0.001,0.002-0.002,0.003l-0.502,0.867l0.013,0.008C5.038,21.565,4,25.702,4,30
		v0v0v0c0,4.294,1.04,8.43,2.998,12.125l-0.006,0.003l0.059,0.101c1.196,2.233,2.729,4.303,4.573,6.147
		c1.844,1.844,3.914,3.377,6.148,4.573l0.1,0.058l0.003-0.006C21.57,54.96,25.706,56,30,56c0.001,0,0.001,0,0.002,0
		c4.297,0,8.434-1.038,12.128-2.991l0.008,0.013l0.867-0.502l0,0c0.951-0.551,1.869-1.164,2.75-1.838
		c0.067-0.051,0.132-0.103,0.198-0.154c0.344-0.269,0.682-0.546,1.015-0.833c0.093-0.08,0.187-0.159,0.279-0.241
		c0.388-0.345,0.77-0.698,1.139-1.068c0.37-0.37,0.724-0.753,1.069-1.141c0.08-0.091,0.158-0.183,0.237-0.275
		c0.289-0.335,0.57-0.676,0.84-1.023c0.049-0.063,0.099-0.126,0.148-0.189C51.354,44.875,51.969,43.955,52.521,43.003z
		 M50.236,42.907c-0.208,0.326-0.425,0.645-0.648,0.96c-0.032,0.044-0.062,0.09-0.094,0.134c-0.216,0.3-0.44,0.594-0.669,0.883
		c-0.043,0.054-0.084,0.11-0.128,0.164c-0.224,0.278-0.457,0.55-0.693,0.818c-0.051,0.058-0.099,0.117-0.151,0.175
		c-0.286,0.318-0.579,0.629-0.881,0.931c-0.303,0.302-0.614,0.596-0.932,0.882c-0.055,0.05-0.113,0.096-0.169,0.146
		c-0.271,0.239-0.545,0.474-0.826,0.7c-0.05,0.04-0.101,0.078-0.151,0.118c-0.295,0.234-0.594,0.462-0.899,0.682
		c-0.039,0.028-0.078,0.055-0.116,0.082c-0.32,0.227-0.645,0.448-0.977,0.66c-0.015,0.009-0.03,0.019-0.045,0.028l-8.026-13.9
		c0.02-0.015,0.037-0.035,0.058-0.05c0.535-0.415,1.015-0.895,1.43-1.43c0.016-0.02,0.035-0.037,0.05-0.058l13.899,8.026
		C50.257,42.873,50.247,42.89,50.236,42.907z M33.61,34.781c-0.187,0.142-0.382,0.273-0.586,0.392
		c-0.03,0.018-0.059,0.037-0.089,0.054l-0.102,0.059C31.989,35.741,31.024,36,30,36c-1.024,0-1.989-0.259-2.833-0.713l-0.104-0.06
		c-0.03-0.017-0.058-0.036-0.088-0.054c-0.203-0.119-0.398-0.251-0.586-0.392c-0.021-0.016-0.042-0.031-0.062-0.047
		c-0.397-0.308-0.753-0.665-1.062-1.062c-0.016-0.02-0.031-0.042-0.047-0.062c-0.142-0.187-0.273-0.382-0.392-0.586
		c-0.017-0.03-0.037-0.058-0.054-0.088l-0.06-0.104C24.259,31.989,24,31.024,24,30c0-1.024,0.259-1.989,0.714-2.834l0.059-0.102
		c0.017-0.03,0.036-0.059,0.054-0.089c0.119-0.203,0.251-0.398,0.392-0.586c0.016-0.021,0.031-0.042,0.047-0.062
		c0.308-0.397,0.665-0.753,1.062-1.062c0.02-0.016,0.042-0.031,0.062-0.047c0.187-0.142,0.382-0.273,0.586-0.392
		c0.03-0.018,0.059-0.037,0.089-0.054l0.102-0.059C28.011,24.259,28.976,24,30,24s1.989,0.259,2.834,0.714l0.102,0.059
		c0.03,0.017,0.059,0.036,0.089,0.054c0.203,0.119,0.398,0.251,0.586,0.392c0.021,0.016,0.042,0.031,0.062,0.047
		c0.397,0.308,0.753,0.665,1.062,1.062c0.016,0.02,0.031,0.042,0.047,0.062c0.142,0.187,0.273,0.382,0.392,0.586
		c0.018,0.03,0.037,0.059,0.054,0.089l0.059,0.102C35.741,28.011,36,28.976,36,30s-0.259,1.989-0.714,2.834l-0.059,0.102
		c-0.017,0.03-0.036,0.059-0.054,0.089c-0.119,0.203-0.251,0.398-0.392,0.586c-0.016,0.021-0.031,0.042-0.047,0.062
		c-0.308,0.397-0.665,0.753-1.062,1.062C33.652,34.75,33.631,34.765,33.61,34.781z M25.169,36.369l-8.018,13.886
		c-2.977-1.895-5.511-4.429-7.406-7.406l13.886-8.018c0.015,0.02,0.035,0.037,0.05,0.058c0.415,0.535,0.895,1.015,1.43,1.43
		C25.132,36.334,25.149,36.353,25.169,36.369z M23.631,25.169L9.733,17.144c0.012-0.019,0.024-0.039,0.037-0.058
		c0.204-0.318,0.416-0.63,0.634-0.938c0.037-0.052,0.073-0.105,0.111-0.157c0.208-0.289,0.424-0.571,0.645-0.851
		c0.051-0.065,0.101-0.131,0.153-0.196c0.213-0.264,0.434-0.522,0.659-0.777c0.062-0.07,0.121-0.143,0.183-0.213
		c0.284-0.316,0.576-0.625,0.876-0.925c0.302-0.302,0.612-0.594,0.929-0.88c0.062-0.056,0.126-0.108,0.188-0.163
		c0.263-0.232,0.53-0.461,0.803-0.681c0.058-0.047,0.117-0.091,0.175-0.136c0.287-0.227,0.577-0.449,0.874-0.663
		c0.045-0.032,0.09-0.063,0.135-0.095c0.317-0.225,0.638-0.443,0.966-0.652c0.015-0.009,0.03-0.019,0.044-0.028l8.025,13.899
		c-0.02,0.015-0.037,0.035-0.058,0.05c-0.535,0.415-1.015,0.895-1.43,1.43C23.666,25.132,23.647,25.149,23.631,25.169z
		 M34.831,23.631l8.017-13.885c2.977,1.895,5.511,4.429,7.406,7.406l-13.885,8.017c-0.015-0.02-0.035-0.037-0.05-0.058
		c-0.415-0.535-0.895-1.015-1.43-1.43C34.868,23.666,34.851,23.647,34.831,23.631z M37.373,33.102
		c0.279-0.66,0.465-1.367,0.557-2.102h16.045c-0.146,3.582-1.073,7.023-2.702,10.128L37.373,33.102z M53.975,29H37.931
		c-0.092-0.736-0.278-1.442-0.557-2.102l13.893-8.021C52.899,21.982,53.829,25.422,53.975,29z M33.102,22.627
		c-0.66-0.279-1.367-0.465-2.102-0.557V6.025c3.578,0.146,7.018,1.076,10.123,2.709L33.102,22.627z M29,6.025v16.045
		c-0.736,0.092-1.443,0.278-2.102,0.557L18.873,8.727C21.977,7.099,25.418,6.171,29,6.025z M22.627,26.898
		c-0.279,0.66-0.465,1.367-0.557,2.102H6.024c0.146-3.582,1.074-7.023,2.703-10.127L22.627,26.898z M6.024,31h16.045
		c0.092,0.735,0.278,1.442,0.557,2.102L8.733,41.124C7.101,38.018,6.171,34.578,6.024,31z M26.898,37.374
		c0.66,0.279,1.367,0.465,2.102,0.557v16.045c-3.578-0.146-7.018-1.076-10.124-2.709L26.898,37.374z M31,53.976V37.931
		c0.736-0.092,1.443-0.278,2.102-0.557l8.025,13.9C38.023,52.902,34.582,53.83,31,53.976z"/>
	<path d="M30,26c-2.206,0-4,1.794-4,4s1.794,4,4,4s4-1.794,4-4S32.206,26,30,26z M30,32c-1.103,0-2-0.897-2-2s0.897-2,2-2
		s2,0.897,2,2S31.103,32,30,32z"/>
</g>
<g>
</g>
<g>
</g>
<g>
</g>
<g>
</g>
<g>
</g>
<g>
</g>
<g>
</g>
<g>
</g>
<g>
</g>
<g>
</g>
<g>
</g>
<g>
</g>
<g>
</g>
<g>
</g>
<g>
</g>
</svg>
