<?xml version="1.0" encoding="iso-8859-1"?>
<!-- Generator: Adobe Illustrator 19.0.0, SVG Export Plug-In . SVG Version: 6.00 Build 0)  -->
<svg version="1.1" id="Capa_1" xmlns="http://www.w3.org/2000/svg" xmlns:xlink="http://www.w3.org/1999/xlink" x="0px" y="0px"
	 viewBox="0 0 479.885 479.885" style="enable-background:new 0 0 479.885 479.885;" xml:space="preserve">
<g>
	<g>
		<path d="M318.983,325.093l-7.8-77.28h-142.44l-7.76,77.288c-0.902,8.86,3.187,17.489,10.616,22.4l2.016,1.336
			c40.195,26.773,92.541,26.773,132.736,0l2.024-1.344C315.803,342.582,319.89,333.952,318.983,325.093z M299.495,334.157
			l-2.024,1.344c-34.841,23.208-80.215,23.208-115.056,0l-2.016-1.336c-2.465-1.641-3.823-4.509-3.528-7.456l6.312-62.896h113.56
			l6.312,62.904C303.336,329.665,301.967,332.527,299.495,334.157z"/>
	</g>
</g>
<g>
	<g>
		<path d="M305.975,83.437l-15.512-8.616c-31.38-17.559-69.628-17.559-101.008,0l-15.528,8.616
			c-8.858,4.946-13.659,14.919-12,24.928l7.24,43.552h141.552l7.256-43.544C319.637,98.362,314.836,88.384,305.975,83.437z
			 M302.191,105.741l-5.024,30.176H182.719l-5.032-30.184c-0.558-3.34,1.048-6.669,4.008-8.312l15.512-8.616
			c26.554-14.856,58.918-14.856,85.472,0l15.512,8.616C301.14,99.078,302.738,102.402,302.191,105.741z"/>
	</g>
</g>
<g>
	<g>
		<rect x="175.92" y="371.044" transform="matrix(0.832 -0.5547 0.5547 0.832 -190.929 169.1822)" width="16" height="57.688"/>
	</g>
</g>
<g>
	<g>
		
			<rect x="267.165" y="392.063" transform="matrix(0.5549 -0.8319 0.8319 0.5549 -201.066 424.3081)" width="57.695" height="16.002"/>
	</g>
</g>
<g>
	<g>
		<path d="M388.431,273.293c-2.201-1.49-4.998-1.79-7.464-0.8l-33.16,13.264l-3.864-45.84l11.456-136.8
			c3.108-35.818-16.085-69.871-48.336-85.76l-6.32-3.144c-38.318-18.951-83.282-18.951-121.6,0l-6.312,3.144
			c-32.263,15.879-51.47,49.935-48.368,85.76l11.48,136.8l-3.84,45.872l-33.16-13.264c-4.096-1.657-8.759,0.32-10.416,4.416
			c-0.383,0.946-0.581,1.956-0.584,2.976v21.168c-0.031,9.825,5.955,18.667,15.088,22.288l25.064,10.024l-3.352,39.824
			c-3.153,37.672,18.238,73.11,53.04,87.872l27.488,11.736c22.146,9.408,47.166,9.408,69.312,0l27.488-11.736
			c34.815-14.751,56.22-50.192,53.072-87.872l-3.336-39.824l25.064-10.024c9.127-3.626,15.105-12.467,15.072-22.288v-21.168
			C391.943,277.263,390.628,274.782,388.431,273.293z M127.943,316.101l-18.968-7.592c-3.046-1.203-5.043-4.149-5.032-7.424v-9.352
			l24,9.6V316.101z M339.463,101.749l-11.52,138.168l11.264,134.672c2.549,30.793-14.955,59.744-43.408,71.792l-27.488,11.728
			c-18.127,7.704-38.609,7.704-56.736,0l-27.488-11.728c-28.442-12.074-45.921-41.041-43.344-71.832l11.2-134.632l-11.528-138.168
			c-2.523-29.269,13.171-57.088,39.528-70.064l6.32-3.144c33.827-16.737,73.525-16.737,107.352,0l6.312,3.144
			C326.286,44.659,341.984,72.478,339.463,101.749z M375.943,301.085c0.011,3.275-1.986,6.222-5.032,7.424l-18.968,7.592v-14.768
			l24-9.6V301.085z"/>
	</g>
</g>
<g>
</g>
<g>
</g>
<g>
</g>
<g>
</g>
<g>
</g>
<g>
</g>
<g>
</g>
<g>
</g>
<g>
</g>
<g>
</g>
<g>
</g>
<g>
</g>
<g>
</g>
<g>
</g>
<g>
</g>
</svg>
